<svg xmlns="http://www.w3.org/2000/svg" width="1920" height="1080"><path d="M412,1254L285,1273L864,1268Z" fill="#083764" stroke="#083764" stroke-width="1.51"/><path d="M1063,1264L864,1268L1238,1271Z" fill="#0f4983" stroke="#0f4983" stroke-width="1.51"/><path d="M864,1268L285,1273L1492,1284Z" fill="#0d467d" stroke="#0d467d" stroke-width="1.51"/><path d="M1238,1271L864,1268L1492,1284Z" fill="#12477d" stroke="#12477d" stroke-width="1.51"/><path d="M1625,-114L1822,-134L1944,-172Z" fill="#09213c" stroke="#09213c" stroke-width="1.51"/><path d="M1391,-151L1625,-114L1944,-172Z" fill="#092340" stroke="#092340" stroke-width="1.51"/><path d="M591,-202L1000,-202L2029,-206Z" fill="#112b49" stroke="#112b49" stroke-width="1.51"/><path d="M1000,-202L1206,-195L2029,-206Z" fill="#0d233c" stroke="#0d233c" stroke-width="1.51"/><path d="M1391,-151L1944,-172L2029,-206Z" fill="#0b213b" stroke="#0b213b" stroke-width="1.51"/><path d="M1206,-195L1391,-151L2029,-206Z" fill="#0b213a" stroke="#0b213a" stroke-width="1.51"/><path d="M1991,-54L2007,-2L2029,-206Z" fill="#082542" stroke="#082542" stroke-width="1.51"/><path d="M2029,-206L2007,-2L2034,123Z" fill="#082748" stroke="#082748" stroke-width="1.51"/><path d="M2040,752L1988,892L2059,910Z" fill="#0e3a66" stroke="#0e3a66" stroke-width="1.51"/><path d="M1854,1258L1755,1284L2075,1225Z" fill="#0d3863" stroke="#0d3863" stroke-width="1.51"/><path d="M1888,1233L1854,1258L2075,1225Z" fill="#0d3963" stroke="#0d3963" stroke-width="1.51"/><path d="M2056,1051L2039,1085L2075,1225Z" fill="#0c3964" stroke="#0c3964" stroke-width="1.51"/><path d="M2059,910L2056,1051L2075,1225Z" fill="#0c3c6b" stroke="#0c3c6b" stroke-width="1.51"/><path d="M2027,524L1921,648L2080,703Z" fill="#0f457b" stroke="#0f457b" stroke-width="1.51"/><path d="M2040,752L2059,910L2080,703Z" fill="#104070" stroke="#104070" stroke-width="1.51"/><path d="M2059,910L2075,1225L2080,703Z" fill="#0c3c6b" stroke="#0c3c6b" stroke-width="1.51"/><path d="M2034,123L2011,184L2108,274Z" fill="#073159" stroke="#073159" stroke-width="1.51"/><path d="M2011,184L2032,402L2108,274Z" fill="#093866" stroke="#093866" stroke-width="1.51"/><path d="M2029,-206L2034,123L2108,274Z" fill="#072e53" stroke="#072e53" stroke-width="1.51"/><path d="M2027,524L2080,703L2108,274Z" fill="#0d457c" stroke="#0d457c" stroke-width="1.51"/><path d="M2032,402L2027,524L2108,274Z" fill="#0b3f73" stroke="#0b3f73" stroke-width="1.51"/><path d="M2080,703L2075,1225L2108,274Z" fill="#124679" stroke="#124679" stroke-width="1.51"/><path d="M1944,-172L1991,-54L2029,-206Z" fill="#0a233e" stroke="#0a233e" stroke-width="1.51"/><path d="M2011,184L1883,312L2032,402Z" fill="#083561" stroke="#083561" stroke-width="1.51"/><path d="M1988,892L1914,1050L2056,1051Z" fill="#0a3966" stroke="#0a3966" stroke-width="1.51"/><path d="M1988,892L2056,1051L2059,910Z" fill="#0c3a68" stroke="#0c3a68" stroke-width="1.51"/><path d="M2039,1085L1952,1146L2075,1225Z" fill="#0d365e" stroke="#0d365e" stroke-width="1.51"/><path d="M1921,648L2040,752L2080,703Z" fill="#104375" stroke="#104375" stroke-width="1.51"/><path d="M1952,1146L1888,1233L2075,1225Z" fill="#0d3861" stroke="#0d3861" stroke-width="1.51"/><path d="M1924,438L2027,524L2032,402Z" fill="#0b3e71" stroke="#0b3e71" stroke-width="1.51"/><path d="M2007,-2L1989,135L2034,123Z" fill="#072c50" stroke="#072c50" stroke-width="1.51"/><path d="M1904,776L1988,892L2040,752Z" fill="#0e3b66" stroke="#0e3b66" stroke-width="1.51"/><path d="M1914,1050L2039,1085L2056,1051Z" fill="#0b3865" stroke="#0b3865" stroke-width="1.51"/><path d="M1625,-114L1756,-115L1822,-134Z" fill="#082240" stroke="#082240" stroke-width="1.51"/><path d="M1883,312L1924,438L2032,402Z" fill="#093967" stroke="#093967" stroke-width="1.51"/><path d="M1989,135L2011,184L2034,123Z" fill="#072e53" stroke="#072e53" stroke-width="1.51"/><path d="M1921,648L1904,776L2040,752Z" fill="#103f6d" stroke="#103f6d" stroke-width="1.51"/><path d="M1874,539L1921,648L2027,524Z" fill="#0d4074" stroke="#0d4074" stroke-width="1.51"/><path d="M1914,1050L1952,1146L2039,1085Z" fill="#0c355e" stroke="#0c355e" stroke-width="1.51"/><path d="M1901,141L1989,135L2007,-2Z" fill="#062a4c" stroke="#062a4c" stroke-width="1.51"/><path d="M1924,438L1884,482L2027,524Z" fill="#0b3d6e" stroke="#0b3d6e" stroke-width="1.51"/><path d="M1851,90L1901,141L2007,-2Z" fill="#062747" stroke="#062747" stroke-width="1.51"/><path d="M1844,226L1883,312L2011,184Z" fill="#072d52" stroke="#072d52" stroke-width="1.51"/><path d="M1884,482L1874,539L2027,524Z" fill="#0c3d6f" stroke="#0c3d6f" stroke-width="1.51"/><path d="M1862,-15L1851,90L2007,-2Z" fill="#062442" stroke="#062442" stroke-width="1.51"/><path d="M1901,141L1844,226L2011,184Z" fill="#062a4c" stroke="#062a4c" stroke-width="1.51"/><path d="M1989,135L1901,141L2011,184Z" fill="#062c4f" stroke="#062c4f" stroke-width="1.51"/><path d="M1991,-54L1862,-15L2007,-2Z" fill="#072542" stroke="#072542" stroke-width="1.51"/><path d="M592,1242L412,1254L864,1268Z" fill="#093b6c" stroke="#093b6c" stroke-width="1.51"/><path d="M1837,1027L1914,1050L1988,892Z" fill="#09345e" stroke="#09345e" stroke-width="1.51"/><path d="M1798,938L1837,1027L1988,892Z" fill="#0a335c" stroke="#0a335c" stroke-width="1.51"/><path d="M1944,-172L1862,-15L1991,-54Z" fill="#07213b" stroke="#07213b" stroke-width="1.51"/><path d="M1883,312L1856,391L1924,438Z" fill="#093663" stroke="#093663" stroke-width="1.51"/><path d="M1822,-134L1862,-15L1944,-172Z" fill="#082039" stroke="#082039" stroke-width="1.51"/><path d="M1904,776L1798,938L1988,892Z" fill="#0c3258" stroke="#0c3258" stroke-width="1.51"/><path d="M1852,750L1904,776L1921,648Z" fill="#0f3c68" stroke="#0f3c68" stroke-width="1.51"/><path d="M1914,1050L1836,1151L1952,1146Z" fill="#0b3156" stroke="#0b3156" stroke-width="1.51"/><path d="M1836,1151L1888,1233L1952,1146Z" fill="#0c3257" stroke="#0c3257" stroke-width="1.51"/><path d="M1852,750L1798,938L1904,776Z" fill="#0c3660" stroke="#0c3660" stroke-width="1.51"/><path d="M1837,1027L1836,1151L1914,1050Z" fill="#0a335b" stroke="#0a335b" stroke-width="1.51"/><path d="M1874,539L1810,692L1921,648Z" fill="#0e4072" stroke="#0e4072" stroke-width="1.51"/><path d="M1810,692L1852,750L1921,648Z" fill="#0e3e6d" stroke="#0e3e6d" stroke-width="1.51"/><path d="M1856,391L1884,482L1924,438Z" fill="#0a3967" stroke="#0a3967" stroke-width="1.51"/><path d="M1724,850L1798,938L1852,750Z" fill="#0b3660" stroke="#0b3660" stroke-width="1.51"/><path d="M1762,659L1810,692L1874,539Z" fill="#0d4175" stroke="#0d4175" stroke-width="1.51"/><path d="M1851,90L1844,226L1901,141Z" fill="#06294b" stroke="#06294b" stroke-width="1.51"/><path d="M1785,302L1856,391L1883,312Z" fill="#073562" stroke="#073562" stroke-width="1.51"/><path d="M1844,226L1785,302L1883,312Z" fill="#07315b" stroke="#07315b" stroke-width="1.51"/><path d="M1856,391L1741,496L1884,482Z" fill="#093b6c" stroke="#093b6c" stroke-width="1.51"/><path d="M1836,1151L1854,1258L1888,1233Z" fill="#0b365e" stroke="#0b365e" stroke-width="1.51"/><path d="M1741,496L1874,539L1884,482Z" fill="#0b3d70" stroke="#0b3d70" stroke-width="1.51"/><path d="M1715,159L1844,226L1851,90Z" fill="#052a4f" stroke="#052a4f" stroke-width="1.51"/><path d="M1822,-134L1756,-115L1862,-15Z" fill="#07213d" stroke="#07213d" stroke-width="1.51"/><path d="M1741,496L1762,659L1874,539Z" fill="#0b4075" stroke="#0b4075" stroke-width="1.51"/><path d="M1729,1127L1836,1151L1837,1027Z" fill="#0a335d" stroke="#0a335d" stroke-width="1.51"/><path d="M1739,721L1724,850L1852,750Z" fill="#0e3c6a" stroke="#0e3c6a" stroke-width="1.51"/><path d="M1836,1151L1755,1284L1854,1258Z" fill="#0c3864" stroke="#0c3864" stroke-width="1.51"/><path d="M1725,405L1741,496L1856,391Z" fill="#083b6d" stroke="#083b6d" stroke-width="1.51"/><path d="M1678,-5L1851,90L1862,-15Z" fill="#052647" stroke="#052647" stroke-width="1.51"/><path d="M1756,-115L1678,-5L1862,-15Z" fill="#062342" stroke="#062342" stroke-width="1.51"/><path d="M1678,-5L1659,66L1851,90Z" fill="#04294d" stroke="#04294d" stroke-width="1.51"/><path d="M1785,302L1725,405L1856,391Z" fill="#073868" stroke="#073868" stroke-width="1.51"/><path d="M1714,1042L1729,1127L1837,1027Z" fill="#083662" stroke="#083662" stroke-width="1.51"/><path d="M1729,1127L1755,1284L1836,1151Z" fill="#0b365f" stroke="#0b365f" stroke-width="1.51"/><path d="M1659,66L1715,159L1851,90Z" fill="#042a50" stroke="#042a50" stroke-width="1.51"/><path d="M1810,692L1739,721L1852,750Z" fill="#0e3e6e" stroke="#0e3e6e" stroke-width="1.51"/><path d="M1715,159L1785,302L1844,226Z" fill="#052e56" stroke="#052e56" stroke-width="1.51"/><path d="M1715,159L1697,278L1785,302Z" fill="#05305b" stroke="#05305b" stroke-width="1.51"/><path d="M1798,938L1714,1042L1837,1027Z" fill="#083664" stroke="#083664" stroke-width="1.51"/><path d="M1762,659L1739,721L1810,692Z" fill="#0e4072" stroke="#0e4072" stroke-width="1.51"/><path d="M1724,850L1714,1042L1798,938Z" fill="#093663" stroke="#093663" stroke-width="1.51"/><path d="M1741,496L1640,505L1762,659Z" fill="#094279" stroke="#094279" stroke-width="1.51"/><path d="M1697,278L1725,405L1785,302Z" fill="#063767" stroke="#063767" stroke-width="1.51"/><path d="M1391,-151L1513,-100L1625,-114Z" fill="#09213b" stroke="#09213b" stroke-width="1.51"/><path d="M1571,969L1714,1042L1724,850Z" fill="#083766" stroke="#083766" stroke-width="1.51"/><path d="M1626,789L1724,850L1739,721Z" fill="#0c3d6d" stroke="#0c3d6d" stroke-width="1.51"/><path d="M1729,1127L1567,1185L1755,1284Z" fill="#0a3965" stroke="#0a3965" stroke-width="1.51"/><path d="M1625,-114L1678,-5L1756,-115Z" fill="#062444" stroke="#062444" stroke-width="1.51"/><path d="M1546,650L1739,721L1762,659Z" fill="#0c4277" stroke="#0c4277" stroke-width="1.51"/><path d="M1640,505L1546,650L1762,659Z" fill="#0b447c" stroke="#0b447c" stroke-width="1.51"/><path d="M1590,1134L1567,1185L1729,1127Z" fill="#0a335d" stroke="#0a335d" stroke-width="1.51"/><path d="M1567,1185L1492,1284L1755,1284Z" fill="#0c3b6a" stroke="#0c3b6a" stroke-width="1.51"/><path d="M1622,205L1697,278L1715,159Z" fill="#042f59" stroke="#042f59" stroke-width="1.51"/><path d="M1546,650L1626,789L1739,721Z" fill="#0e4072" stroke="#0e4072" stroke-width="1.51"/><path d="M1725,405L1624,475L1741,496Z" fill="#073e74" stroke="#073e74" stroke-width="1.51"/><path d="M1624,475L1640,505L1741,496Z" fill="#083f76" stroke="#083f76" stroke-width="1.51"/><path d="M1547,875L1571,969L1724,850Z" fill="#0a3560" stroke="#0a3560" stroke-width="1.51"/><path d="M1697,278L1549,334L1725,405Z" fill="#063869" stroke="#063869" stroke-width="1.51"/><path d="M1714,1042L1590,1134L1729,1127Z" fill="#083663" stroke="#083663" stroke-width="1.51"/><path d="M1626,789L1547,875L1724,850Z" fill="#0b3865" stroke="#0b3865" stroke-width="1.51"/><path d="M1549,334L1624,475L1725,405Z" fill="#073a6e" stroke="#073a6e" stroke-width="1.51"/><path d="M1659,66L1588,124L1715,159Z" fill="#042b51" stroke="#042b51" stroke-width="1.51"/><path d="M1588,124L1622,205L1715,159Z" fill="#042c53" stroke="#042c53" stroke-width="1.51"/><path d="M1571,969L1590,1134L1714,1042Z" fill="#083765" stroke="#083765" stroke-width="1.51"/><path d="M1625,-114L1586,-34L1678,-5Z" fill="#062443" stroke="#062443" stroke-width="1.51"/><path d="M1622,205L1549,334L1697,278Z" fill="#05325e" stroke="#05325e" stroke-width="1.51"/><path d="M202,1264L-131,1271L285,1273Z" fill="#082c4f" stroke="#082c4f" stroke-width="1.51"/><path d="M1586,-34L1659,66L1678,-5Z" fill="#052749" stroke="#052749" stroke-width="1.51"/><path d="M1586,-34L1588,124L1659,66Z" fill="#04294c" stroke="#04294c" stroke-width="1.51"/><path d="M1586,-34L1508,84L1588,124Z" fill="#05284a" stroke="#05284a" stroke-width="1.51"/><path d="M1512,238L1549,334L1622,205Z" fill="#06305a" stroke="#06305a" stroke-width="1.51"/><path d="M1549,334L1504,462L1624,475Z" fill="#093a6c" stroke="#093a6c" stroke-width="1.51"/><path d="M1546,650L1490,702L1626,789Z" fill="#0e3f6f" stroke="#0e3f6f" stroke-width="1.51"/><path d="M1624,475L1504,462L1640,505Z" fill="#093e72" stroke="#093e72" stroke-width="1.51"/><path d="M1504,462L1546,650L1640,505Z" fill="#0a3f74" stroke="#0a3f74" stroke-width="1.51"/><path d="M1571,969L1439,1088L1590,1134Z" fill="#093560" stroke="#093560" stroke-width="1.51"/><path d="M1513,-100L1586,-34L1625,-114Z" fill="#07223e" stroke="#07223e" stroke-width="1.51"/><path d="M1490,702L1547,875L1626,789Z" fill="#0e3a67" stroke="#0e3a67" stroke-width="1.51"/><path d="M1504,462L1444,510L1546,650Z" fill="#0c3f72" stroke="#0c3f72" stroke-width="1.51"/><path d="M1588,124L1512,238L1622,205Z" fill="#052c52" stroke="#052c52" stroke-width="1.51"/><path d="M1492,350L1504,462L1549,334Z" fill="#083867" stroke="#083867" stroke-width="1.51"/><path d="M1453,989L1439,1088L1571,969Z" fill="#093662" stroke="#093662" stroke-width="1.51"/><path d="M1481,16L1508,84L1586,-34Z" fill="#062646" stroke="#062646" stroke-width="1.51"/><path d="M1508,84L1512,238L1588,124Z" fill="#052a4e" stroke="#052a4e" stroke-width="1.51"/><path d="M1439,1088L1567,1185L1590,1134Z" fill="#0b325a" stroke="#0b325a" stroke-width="1.51"/><path d="M1513,-100L1481,16L1586,-34Z" fill="#062340" stroke="#062340" stroke-width="1.51"/><path d="M1490,702L1429,723L1547,875Z" fill="#0e3b67" stroke="#0e3b67" stroke-width="1.51"/><path d="M1429,723L1385,828L1547,875Z" fill="#0e3964" stroke="#0e3964" stroke-width="1.51"/><path d="M1547,875L1454,937L1571,969Z" fill="#0a345e" stroke="#0a345e" stroke-width="1.51"/><path d="M1454,937L1453,989L1571,969Z" fill="#0a3560" stroke="#0a3560" stroke-width="1.51"/><path d="M1439,1088L1492,1284L1567,1185Z" fill="#0c345c" stroke="#0c345c" stroke-width="1.51"/><path d="M1439,1088L1361,1193L1492,1284Z" fill="#0d3760" stroke="#0d3760" stroke-width="1.51"/><path d="M1376,634L1490,702L1546,650Z" fill="#0f4072" stroke="#0f4072" stroke-width="1.51"/><path d="M1444,510L1376,634L1546,650Z" fill="#0e4277" stroke="#0e4277" stroke-width="1.51"/><path d="M1385,828L1454,937L1547,875Z" fill="#0b345b" stroke="#0b345b" stroke-width="1.51"/><path d="M1512,238L1492,350L1549,334Z" fill="#07345f" stroke="#07345f" stroke-width="1.51"/><path d="M1508,84L1348,175L1512,238Z" fill="#062b4f" stroke="#062b4f" stroke-width="1.51"/><path d="M1364,1147L1361,1193L1439,1088Z" fill="#0d365e" stroke="#0d365e" stroke-width="1.51"/><path d="M1492,350L1351,471L1504,462Z" fill="#0a3b6c" stroke="#0a3b6c" stroke-width="1.51"/><path d="M1341,288L1492,350L1512,238Z" fill="#08335f" stroke="#08335f" stroke-width="1.51"/><path d="M1389,-79L1481,16L1513,-100Z" fill="#07233f" stroke="#07233f" stroke-width="1.51"/><path d="M1391,-151L1389,-79L1513,-100Z" fill="#09233e" stroke="#09233e" stroke-width="1.51"/><path d="M1351,471L1444,510L1504,462Z" fill="#0c3f71" stroke="#0c3f71" stroke-width="1.51"/><path d="M1348,175L1341,288L1512,238Z" fill="#073159" stroke="#073159" stroke-width="1.51"/><path d="M1481,16L1318,49L1508,84Z" fill="#06294a" stroke="#06294a" stroke-width="1.51"/><path d="M1318,49L1348,175L1508,84Z" fill="#072d51" stroke="#072d51" stroke-width="1.51"/><path d="M1376,634L1429,723L1490,702Z" fill="#104173" stroke="#104173" stroke-width="1.51"/><path d="M1361,1193L1238,1271L1492,1284Z" fill="#103f6e" stroke="#103f6e" stroke-width="1.51"/><path d="M1341,288L1351,471L1492,350Z" fill="#0b3b6b" stroke="#0b3b6b" stroke-width="1.51"/><path d="M1376,634L1396,713L1429,723Z" fill="#114374" stroke="#114374" stroke-width="1.51"/><path d="M1389,-79L1318,49L1481,16Z" fill="#082848" stroke="#082848" stroke-width="1.51"/><path d="M1396,713L1385,828L1429,723Z" fill="#103f6e" stroke="#103f6e" stroke-width="1.51"/><path d="M1343,531L1376,634L1444,510Z" fill="#0e4479" stroke="#0e4479" stroke-width="1.51"/><path d="M1331,1005L1439,1088L1453,989Z" fill="#0b3967" stroke="#0b3967" stroke-width="1.51"/><path d="M1331,1005L1453,989L1454,937Z" fill="#0b3866" stroke="#0b3866" stroke-width="1.51"/><path d="M1385,828L1331,1005L1454,937Z" fill="#0d3863" stroke="#0d3863" stroke-width="1.51"/><path d="M1351,471L1343,531L1444,510Z" fill="#0d4277" stroke="#0d4277" stroke-width="1.51"/><path d="M1331,1005L1364,1147L1439,1088Z" fill="#0c3965" stroke="#0c3965" stroke-width="1.51"/><path d="M1341,288L1280,292L1351,471Z" fill="#0c3d70" stroke="#0c3d70" stroke-width="1.51"/><path d="M1331,1005L1292,1143L1364,1147Z" fill="#0e3a66" stroke="#0e3a66" stroke-width="1.51"/><path d="M1212,838L1331,1005L1385,828Z" fill="#0e3b67" stroke="#0e3b67" stroke-width="1.51"/><path d="M1206,-195L1389,-79L1391,-151Z" fill="#0c2744" stroke="#0c2744" stroke-width="1.51"/><path d="M1376,634L1260,662L1396,713Z" fill="#12467a" stroke="#12467a" stroke-width="1.51"/><path d="M1260,662L1264,781L1396,713Z" fill="#134679" stroke="#134679" stroke-width="1.51"/><path d="M1264,781L1385,828L1396,713Z" fill="#124170" stroke="#124170" stroke-width="1.51"/><path d="M1264,781L1212,838L1385,828Z" fill="#114170" stroke="#114170" stroke-width="1.51"/><path d="M1191,-22L1318,49L1389,-79Z" fill="#0a2b4e" stroke="#0a2b4e" stroke-width="1.51"/><path d="M1206,-195L1191,-22L1389,-79Z" fill="#0c2a4a" stroke="#0c2a4a" stroke-width="1.51"/><path d="M1159,-83L1191,-22L1206,-195Z" fill="#0c2c4e" stroke="#0c2c4e" stroke-width="1.51"/><path d="M1280,292L1303,499L1351,471Z" fill="#0d4177" stroke="#0d4177" stroke-width="1.51"/><path d="M1343,531L1260,662L1376,634Z" fill="#114981" stroke="#114981" stroke-width="1.51"/><path d="M1280,292L1199,480L1303,499Z" fill="#0e447a" stroke="#0e447a" stroke-width="1.51"/><path d="M1280,292L1341,288L1348,175Z" fill="#0a3662" stroke="#0a3662" stroke-width="1.51"/><path d="M1303,499L1343,531L1351,471Z" fill="#0e447a" stroke="#0e447a" stroke-width="1.51"/><path d="M1292,1143L1238,1271L1361,1193Z" fill="#103e6c" stroke="#103e6c" stroke-width="1.51"/><path d="M1292,1143L1361,1193L1364,1147Z" fill="#0e3963" stroke="#0e3963" stroke-width="1.51"/><path d="M1170,340L1199,480L1280,292Z" fill="#0c4278" stroke="#0c4278" stroke-width="1.51"/><path d="M1318,49L1203,80L1348,175Z" fill="#093158" stroke="#093158" stroke-width="1.51"/><path d="M1191,1043L1292,1143L1331,1005Z" fill="#0e3e6e" stroke="#0e3e6e" stroke-width="1.51"/><path d="M1303,499L1260,662L1343,531Z" fill="#114881" stroke="#114881" stroke-width="1.51"/><path d="M1203,80L1209,203L1348,175Z" fill="#09345d" stroke="#09345d" stroke-width="1.51"/><path d="M1209,203L1280,292L1348,175Z" fill="#0a3661" stroke="#0a3661" stroke-width="1.51"/><path d="M1212,838L1191,1043L1331,1005Z" fill="#0e3f70" stroke="#0e3f70" stroke-width="1.51"/><path d="M1199,480L1260,662L1303,499Z" fill="#114983" stroke="#114983" stroke-width="1.51"/><path d="M1191,-22L1203,80L1318,49Z" fill="#093057" stroke="#093057" stroke-width="1.51"/><path d="M1109,920L1191,1043L1212,838Z" fill="#0d4073" stroke="#0d4073" stroke-width="1.51"/><path d="M1199,480L1124,598L1260,662Z" fill="#114c88" stroke="#114c88" stroke-width="1.51"/><path d="M1260,662L1153,757L1264,781Z" fill="#14487d" stroke="#14487d" stroke-width="1.51"/><path d="M1191,1043L1136,1096L1292,1143Z" fill="#0e3f6f" stroke="#0e3f6f" stroke-width="1.51"/><path d="M1119,1200L1238,1271L1292,1143Z" fill="#104171" stroke="#104171" stroke-width="1.51"/><path d="M1136,1096L1119,1200L1292,1143Z" fill="#0f3d6c" stroke="#0f3d6c" stroke-width="1.51"/><path d="M1209,203L1170,340L1280,292Z" fill="#0a3c6d" stroke="#0a3c6d" stroke-width="1.51"/><path d="M1153,757L1212,838L1264,781Z" fill="#124577" stroke="#124577" stroke-width="1.51"/><path d="M1124,598L1153,757L1260,662Z" fill="#124b85" stroke="#124b85" stroke-width="1.51"/><path d="M1170,340L1144,468L1199,480Z" fill="#0d467f" stroke="#0d467f" stroke-width="1.51"/><path d="M1119,1200L1063,1264L1238,1271Z" fill="#10467c" stroke="#10467c" stroke-width="1.51"/><path d="M1087,553L1124,598L1144,468Z" fill="#0f4c8a" stroke="#0f4c8a" stroke-width="1.51"/><path d="M1109,920L1133,1054L1191,1043Z" fill="#0c4379" stroke="#0c4379" stroke-width="1.51"/><path d="M1144,468L1124,598L1199,480Z" fill="#0e4a87" stroke="#0e4a87" stroke-width="1.51"/><path d="M1191,-22L1093,28L1203,80Z" fill="#09315a" stroke="#09315a" stroke-width="1.51"/><path d="M1000,-202L1101,-136L1206,-195Z" fill="#0f2d50" stroke="#0f2d50" stroke-width="1.51"/><path d="M1101,-136L1159,-83L1206,-195Z" fill="#0d2c4e" stroke="#0d2c4e" stroke-width="1.51"/><path d="M1203,80L1101,206L1209,203Z" fill="#083561" stroke="#083561" stroke-width="1.51"/><path d="M1101,206L1170,340L1209,203Z" fill="#093b6b" stroke="#093b6b" stroke-width="1.51"/><path d="M1153,757L1109,920L1212,838Z" fill="#104275" stroke="#104275" stroke-width="1.51"/><path d="M1093,28L1101,206L1203,80Z" fill="#083561" stroke="#083561" stroke-width="1.51"/><path d="M1133,1054L1136,1096L1191,1043Z" fill="#0d4174" stroke="#0d4174" stroke-width="1.51"/><path d="M1093,28L1030,77L1101,206Z" fill="#073664" stroke="#073664" stroke-width="1.51"/><path d="M1109,920L1069,1010L1133,1054Z" fill="#0b437a" stroke="#0b437a" stroke-width="1.51"/><path d="M591,-202L757,-148L1000,-202Z" fill="#0c2646" stroke="#0c2646" stroke-width="1.51"/><path d="M1159,-83L1093,28L1191,-22Z" fill="#0a2e55" stroke="#0a2e55" stroke-width="1.51"/><path d="M746,1238L592,1242L864,1268Z" fill="#0b3e72" stroke="#0b3e72" stroke-width="1.51"/><path d="M1041,218L1002,269L1101,206Z" fill="#073b6e" stroke="#073b6e" stroke-width="1.51"/><path d="M1019,605L1004,742L1124,598Z" fill="#104e8d" stroke="#104e8d" stroke-width="1.51"/><path d="M1124,598L1004,742L1153,757Z" fill="#124c88" stroke="#124c88" stroke-width="1.51"/><path d="M1004,742L1109,920L1153,757Z" fill="#10467c" stroke="#10467c" stroke-width="1.51"/><path d="M1056,-31L1093,28L1159,-83Z" fill="#092f57" stroke="#092f57" stroke-width="1.51"/><path d="M965,416L1144,468L1170,340Z" fill="#0b4782" stroke="#0b4782" stroke-width="1.51"/><path d="M1002,269L965,416L1170,340Z" fill="#08447e" stroke="#08447e" stroke-width="1.51"/><path d="M1101,206L1002,269L1170,340Z" fill="#083e72" stroke="#083e72" stroke-width="1.51"/><path d="M1071,935L1069,1010L1109,920Z" fill="#0c4279" stroke="#0c4279" stroke-width="1.51"/><path d="M1101,-136L1056,-31L1159,-83Z" fill="#0a2d52" stroke="#0a2d52" stroke-width="1.51"/><path d="M1004,742L1071,935L1109,920Z" fill="#0e4276" stroke="#0e4276" stroke-width="1.51"/><path d="M1052,1087L1119,1200L1136,1096Z" fill="#0e4071" stroke="#0e4071" stroke-width="1.51"/><path d="M1071,544L1087,553L1144,468Z" fill="#0e4b8a" stroke="#0e4b8a" stroke-width="1.51"/><path d="M965,416L1071,544L1144,468Z" fill="#0c4a89" stroke="#0c4a89" stroke-width="1.51"/><path d="M1133,1054L1052,1087L1136,1096Z" fill="#0c4176" stroke="#0c4176" stroke-width="1.51"/><path d="M1069,1010L1052,1087L1133,1054Z" fill="#0c437a" stroke="#0c437a" stroke-width="1.51"/><path d="M1030,77L1041,218L1101,206Z" fill="#073867" stroke="#073867" stroke-width="1.51"/><path d="M1087,553L1019,605L1124,598Z" fill="#0f4e8f" stroke="#0f4e8f" stroke-width="1.51"/><path d="M1004,742L931,790L1071,935Z" fill="#0f4479" stroke="#0f4479" stroke-width="1.51"/><path d="M1052,1087L1063,1264L1119,1200Z" fill="#0e4275" stroke="#0e4275" stroke-width="1.51"/><path d="M1052,1087L893,1134L1063,1264Z" fill="#0d3f70" stroke="#0d3f70" stroke-width="1.51"/><path d="M1071,544L1019,605L1087,553Z" fill="#0e4e8e" stroke="#0e4e8e" stroke-width="1.51"/><path d="M933,-145L1056,-31L1101,-136Z" fill="#0b2d53" stroke="#0b2d53" stroke-width="1.51"/><path d="M1000,-202L933,-145L1101,-136Z" fill="#0e2c50" stroke="#0e2c50" stroke-width="1.51"/><path d="M931,790L894,844L1071,935Z" fill="#0d4074" stroke="#0d4074" stroke-width="1.51"/><path d="M1056,-31L1030,77L1093,28Z" fill="#08335e" stroke="#08335e" stroke-width="1.51"/><path d="M1030,77L953,116L1041,218Z" fill="#063664" stroke="#063664" stroke-width="1.51"/><path d="M893,1134L864,1268L1063,1264Z" fill="#0d4277" stroke="#0d4277" stroke-width="1.51"/><path d="M914,968L1052,1087L1069,1010Z" fill="#09437b" stroke="#09437b" stroke-width="1.51"/><path d="M894,844L914,968L1071,935Z" fill="#0b3f73" stroke="#0b3f73" stroke-width="1.51"/><path d="M914,968L1069,1010L1071,935Z" fill="#0a4279" stroke="#0a4279" stroke-width="1.51"/><path d="M932,571L1019,605L1071,544Z" fill="#0d4d8d" stroke="#0d4d8d" stroke-width="1.51"/><path d="M965,416L932,571L1071,544Z" fill="#0c4a88" stroke="#0c4a88" stroke-width="1.51"/><path d="M255,-197L380,-178L591,-202Z" fill="#07182d" stroke="#07182d" stroke-width="1.51"/><path d="M914,968L893,1134L1052,1087Z" fill="#0a4075" stroke="#0a4075" stroke-width="1.51"/><path d="M871,-59L1030,77L1056,-31Z" fill="#073059" stroke="#073059" stroke-width="1.51"/><path d="M933,-145L871,-59L1056,-31Z" fill="#082c51" stroke="#082c51" stroke-width="1.51"/><path d="M871,-59L953,116L1030,77Z" fill="#05315c" stroke="#05315c" stroke-width="1.51"/><path d="M883,671L1004,742L1019,605Z" fill="#0f4c88" stroke="#0f4c88" stroke-width="1.51"/><path d="M896,179L1002,269L1041,218Z" fill="#063869" stroke="#063869" stroke-width="1.51"/><path d="M953,116L896,179L1041,218Z" fill="#063564" stroke="#063564" stroke-width="1.51"/><path d="M757,-148L933,-145L1000,-202Z" fill="#0d2a4c" stroke="#0d2a4c" stroke-width="1.51"/><path d="M881,359L965,416L1002,269Z" fill="#07417a" stroke="#07417a" stroke-width="1.51"/><path d="M932,571L883,671L1019,605Z" fill="#0d4c8c" stroke="#0d4c8c" stroke-width="1.51"/><path d="M853,482L932,571L965,416Z" fill="#094784" stroke="#094784" stroke-width="1.51"/><path d="M883,671L931,790L1004,742Z" fill="#104981" stroke="#104981" stroke-width="1.51"/><path d="M896,179L881,359L1002,269Z" fill="#063b6e" stroke="#063b6e" stroke-width="1.51"/><path d="M822,1019L893,1134L914,968Z" fill="#083e75" stroke="#083e75" stroke-width="1.51"/><path d="M871,-59L807,-9L953,116Z" fill="#062e57" stroke="#062e57" stroke-width="1.51"/><path d="M807,-9L812,95L953,116Z" fill="#04305b" stroke="#04305b" stroke-width="1.51"/><path d="M881,359L853,482L965,416Z" fill="#07437e" stroke="#07437e" stroke-width="1.51"/><path d="M812,95L896,179L953,116Z" fill="#05325f" stroke="#05325f" stroke-width="1.51"/><path d="M757,232L881,359L896,179Z" fill="#05386a" stroke="#05386a" stroke-width="1.51"/><path d="M883,671L809,767L931,790Z" fill="#0f477e" stroke="#0f477e" stroke-width="1.51"/><path d="M796,531L883,671L932,571Z" fill="#0b4a88" stroke="#0b4a88" stroke-width="1.51"/><path d="M853,482L796,531L932,571Z" fill="#094784" stroke="#094784" stroke-width="1.51"/><path d="M757,-148L871,-59L933,-145Z" fill="#0a294c" stroke="#0a294c" stroke-width="1.51"/><path d="M796,531L802,663L883,671Z" fill="#0c4986" stroke="#0c4986" stroke-width="1.51"/><path d="M809,767L894,844L931,790Z" fill="#0e4277" stroke="#0e4277" stroke-width="1.51"/><path d="M894,844L736,877L914,968Z" fill="#0a3c6e" stroke="#0a3c6e" stroke-width="1.51"/><path d="M736,877L822,1019L914,968Z" fill="#083c70" stroke="#083c70" stroke-width="1.51"/><path d="M766,1127L746,1238L864,1268Z" fill="#0b3d6f" stroke="#0b3d6f" stroke-width="1.51"/><path d="M757,232L739,331L881,359Z" fill="#053a6e" stroke="#053a6e" stroke-width="1.51"/><path d="M779,394L853,482L881,359Z" fill="#07417b" stroke="#07417b" stroke-width="1.51"/><path d="M802,663L809,767L883,671Z" fill="#0e4680" stroke="#0e4680" stroke-width="1.51"/><path d="M766,1127L864,1268L893,1134Z" fill="#0b3c6c" stroke="#0b3c6c" stroke-width="1.51"/><path d="M822,1019L766,1127L893,1134Z" fill="#093b6d" stroke="#093b6d" stroke-width="1.51"/><path d="M812,95L757,232L896,179Z" fill="#04325e" stroke="#04325e" stroke-width="1.51"/><path d="M736,877L719,947L822,1019Z" fill="#083a6c" stroke="#083a6c" stroke-width="1.51"/><path d="M809,767L736,877L894,844Z" fill="#0b3e71" stroke="#0b3e71" stroke-width="1.51"/><path d="M739,331L779,394L881,359Z" fill="#063d75" stroke="#063d75" stroke-width="1.51"/><path d="M757,-148L807,-9L871,-59Z" fill="#06284b" stroke="#06284b" stroke-width="1.51"/><path d="M779,394L796,531L853,482Z" fill="#07437e" stroke="#07437e" stroke-width="1.51"/><path d="M678,547L701,661L796,531Z" fill="#094580" stroke="#094580" stroke-width="1.51"/><path d="M796,531L701,661L802,663Z" fill="#0b4783" stroke="#0b4783" stroke-width="1.51"/><path d="M802,663L701,661L809,767Z" fill="#0d457d" stroke="#0d457d" stroke-width="1.51"/><path d="M660,171L757,232L812,95Z" fill="#042f5a" stroke="#042f5a" stroke-width="1.51"/><path d="M807,-9L625,35L812,95Z" fill="#042b53" stroke="#042b53" stroke-width="1.51"/><path d="M719,947L766,1127L822,1019Z" fill="#073c70" stroke="#073c70" stroke-width="1.51"/><path d="M779,394L678,547L796,531Z" fill="#07427c" stroke="#07427c" stroke-width="1.51"/><path d="M757,-148L626,-105L807,-9Z" fill="#062547" stroke="#062547" stroke-width="1.51"/><path d="M626,-105L615,2L807,-9Z" fill="#052649" stroke="#052649" stroke-width="1.51"/><path d="M701,661L641,750L809,767Z" fill="#0d4277" stroke="#0d4277" stroke-width="1.51"/><path d="M625,35L660,171L812,95Z" fill="#032c54" stroke="#032c54" stroke-width="1.51"/><path d="M641,750L736,877L809,767Z" fill="#0b3e70" stroke="#0b3e70" stroke-width="1.51"/><path d="M615,2L625,35L807,-9Z" fill="#04284d" stroke="#04284d" stroke-width="1.51"/><path d="M719,947L655,1132L766,1127Z" fill="#07386a" stroke="#07386a" stroke-width="1.51"/><path d="M717,366L678,547L779,394Z" fill="#063f77" stroke="#063f77" stroke-width="1.51"/><path d="M636,400L678,547L717,366Z" fill="#053e74" stroke="#053e74" stroke-width="1.51"/><path d="M641,750L642,840L736,877Z" fill="#0a3a6a" stroke="#0a3a6a" stroke-width="1.51"/><path d="M655,1132L746,1238L766,1127Z" fill="#0a3765" stroke="#0a3765" stroke-width="1.51"/><path d="M739,331L717,366L779,394Z" fill="#053c72" stroke="#053c72" stroke-width="1.51"/><path d="M599,1093L655,1132L719,947Z" fill="#063768" stroke="#063768" stroke-width="1.51"/><path d="M630,1215L592,1242L746,1238Z" fill="#093b6c" stroke="#093b6c" stroke-width="1.51"/><path d="M655,1132L630,1215L746,1238Z" fill="#093867" stroke="#093867" stroke-width="1.51"/><path d="M591,-202L626,-105L757,-148Z" fill="#092341" stroke="#092341" stroke-width="1.51"/><path d="M660,171L739,331L757,232Z" fill="#043361" stroke="#043361" stroke-width="1.51"/><path d="M636,400L596,496L678,547Z" fill="#063e75" stroke="#063e75" stroke-width="1.51"/><path d="M636,400L717,366L739,331Z" fill="#053b70" stroke="#053b70" stroke-width="1.51"/><path d="M660,171L636,400L739,331Z" fill="#043667" stroke="#043667" stroke-width="1.51"/><path d="M512,267L636,400L660,171Z" fill="#03315e" stroke="#03315e" stroke-width="1.51"/><path d="M642,840L719,947L736,877Z" fill="#093765" stroke="#093765" stroke-width="1.51"/><path d="M512,1034L599,1093L719,947Z" fill="#053666" stroke="#053666" stroke-width="1.51"/><path d="M642,840L559,849L719,947Z" fill="#083562" stroke="#083562" stroke-width="1.51"/><path d="M559,849L512,1034L719,947Z" fill="#063462" stroke="#063462" stroke-width="1.51"/><path d="M678,547L540,708L701,661Z" fill="#0a427b" stroke="#0a427b" stroke-width="1.51"/><path d="M540,708L641,750L701,661Z" fill="#0c3f73" stroke="#0c3f73" stroke-width="1.51"/><path d="M590,-21L615,2L626,-105Z" fill="#052343" stroke="#052343" stroke-width="1.51"/><path d="M533,182L512,267L660,171Z" fill="#022a51" stroke="#022a51" stroke-width="1.51"/><path d="M625,35L533,182L660,171Z" fill="#032950" stroke="#032950" stroke-width="1.51"/><path d="M596,496L540,708L678,547Z" fill="#084178" stroke="#084178" stroke-width="1.51"/><path d="M501,100L533,182L625,35Z" fill="#03264a" stroke="#03264a" stroke-width="1.51"/><path d="M560,453L596,496L636,400Z" fill="#053b6f" stroke="#053b6f" stroke-width="1.51"/><path d="M641,750L548,794L642,840Z" fill="#0b3969" stroke="#0b3969" stroke-width="1.51"/><path d="M599,1093L630,1215L655,1132Z" fill="#08335d" stroke="#08335d" stroke-width="1.51"/><path d="M492,870L512,1034L559,849Z" fill="#063059" stroke="#063059" stroke-width="1.51"/><path d="M599,1093L592,1242L630,1215Z" fill="#08355f" stroke="#08355f" stroke-width="1.51"/><path d="M512,267L560,453L636,400Z" fill="#043666" stroke="#043666" stroke-width="1.51"/><path d="M548,794L559,849L642,840Z" fill="#093662" stroke="#093662" stroke-width="1.51"/><path d="M540,708L548,794L641,750Z" fill="#0b3b6b" stroke="#0b3b6b" stroke-width="1.51"/><path d="M476,709L540,708L596,496Z" fill="#093d70" stroke="#093d70" stroke-width="1.51"/><path d="M388,515L476,709L596,496Z" fill="#063a6c" stroke="#063a6c" stroke-width="1.51"/><path d="M591,-202L402,-124L626,-105Z" fill="#071e38" stroke="#071e38" stroke-width="1.51"/><path d="M402,-124L590,-21L626,-105Z" fill="#051e3a" stroke="#051e3a" stroke-width="1.51"/><path d="M615,2L590,-21L625,35Z" fill="#042548" stroke="#042548" stroke-width="1.51"/><path d="M590,-21L501,100L625,35Z" fill="#032547" stroke="#032547" stroke-width="1.51"/><path d="M424,1085L592,1242L599,1093Z" fill="#072f56" stroke="#072f56" stroke-width="1.51"/><path d="M512,267L437,303L560,453Z" fill="#04305e" stroke="#04305e" stroke-width="1.51"/><path d="M437,303L409,374L560,453Z" fill="#03315d" stroke="#03315d" stroke-width="1.51"/><path d="M424,1085L412,1254L592,1242Z" fill="#072f55" stroke="#072f55" stroke-width="1.51"/><path d="M560,453L388,515L596,496Z" fill="#05386a" stroke="#05386a" stroke-width="1.51"/><path d="M512,1034L424,1085L599,1093Z" fill="#062f59" stroke="#062f59" stroke-width="1.51"/><path d="M402,-124L385,9L590,-21Z" fill="#031b35" stroke="#031b35" stroke-width="1.51"/><path d="M385,9L501,100L590,-21Z" fill="#03203f" stroke="#03203f" stroke-width="1.51"/><path d="M380,-178L402,-124L591,-202Z" fill="#071a30" stroke="#071a30" stroke-width="1.51"/><path d="M385,9L390,34L501,100Z" fill="#021e3b" stroke="#021e3b" stroke-width="1.51"/><path d="M492,870L419,1016L512,1034Z" fill="#052f58" stroke="#052f58" stroke-width="1.51"/><path d="M484,235L512,267L533,182Z" fill="#02284e" stroke="#02284e" stroke-width="1.51"/><path d="M540,708L476,709L548,794Z" fill="#0b3967" stroke="#0b3967" stroke-width="1.51"/><path d="M548,794L492,870L559,849Z" fill="#08325c" stroke="#08325c" stroke-width="1.51"/><path d="M409,374L388,515L560,453Z" fill="#043361" stroke="#043361" stroke-width="1.51"/><path d="M399,817L492,870L548,794Z" fill="#073159" stroke="#073159" stroke-width="1.51"/><path d="M476,709L399,817L548,794Z" fill="#09355f" stroke="#09355f" stroke-width="1.51"/><path d="M362,1143L412,1254L424,1085Z" fill="#06294c" stroke="#06294c" stroke-width="1.51"/><path d="M501,100L484,235L533,182Z" fill="#022648" stroke="#022648" stroke-width="1.51"/><path d="M309,158L484,235L501,100Z" fill="#022242" stroke="#022242" stroke-width="1.51"/><path d="M484,235L437,303L512,267Z" fill="#022a51" stroke="#022a51" stroke-width="1.51"/><path d="M419,1016L424,1085L512,1034Z" fill="#042d56" stroke="#042d56" stroke-width="1.51"/><path d="M388,515L272,654L476,709Z" fill="#073766" stroke="#073766" stroke-width="1.51"/><path d="M352,860L419,1016L492,870Z" fill="#052b50" stroke="#052b50" stroke-width="1.51"/><path d="M390,34L309,158L501,100Z" fill="#02203e" stroke="#02203e" stroke-width="1.51"/><path d="M376,799L399,817L476,709Z" fill="#09325a" stroke="#09325a" stroke-width="1.51"/><path d="M399,817L352,860L492,870Z" fill="#072c52" stroke="#072c52" stroke-width="1.51"/><path d="M309,158L437,303L484,235Z" fill="#022547" stroke="#022547" stroke-width="1.51"/><path d="M349,517L272,654L388,515Z" fill="#063564" stroke="#063564" stroke-width="1.51"/><path d="M272,654L376,799L476,709Z" fill="#09345e" stroke="#09345e" stroke-width="1.51"/><path d="M349,517L388,515L409,374Z" fill="#043260" stroke="#043260" stroke-width="1.51"/><path d="M279,431L349,517L409,374Z" fill="#04315c" stroke="#04315c" stroke-width="1.51"/><path d="M352,860L316,1004L419,1016Z" fill="#042b51" stroke="#042b51" stroke-width="1.51"/><path d="M309,158L361,323L437,303Z" fill="#02264a" stroke="#02264a" stroke-width="1.51"/><path d="M361,323L409,374L437,303Z" fill="#032d56" stroke="#032d56" stroke-width="1.51"/><path d="M300,7L385,9L402,-124Z" fill="#031932" stroke="#031932" stroke-width="1.51"/><path d="M419,1016L316,1004L424,1085Z" fill="#042c54" stroke="#042c54" stroke-width="1.51"/><path d="M316,1004L362,1143L424,1085Z" fill="#052b50" stroke="#052b50" stroke-width="1.51"/><path d="M255,577L272,654L349,517Z" fill="#063563" stroke="#063563" stroke-width="1.51"/><path d="M362,1143L285,1273L412,1254Z" fill="#072e53" stroke="#072e53" stroke-width="1.51"/><path d="M34,1228L-131,1271L202,1264Z" fill="#082848" stroke="#082848" stroke-width="1.51"/><path d="M280,55L309,158L390,34Z" fill="#021e3b" stroke="#021e3b" stroke-width="1.51"/><path d="M250,-41L300,7L402,-124Z" fill="#03182f" stroke="#03182f" stroke-width="1.51"/><path d="M361,323L279,431L409,374Z" fill="#032e57" stroke="#032e57" stroke-width="1.51"/><path d="M376,799L352,860L399,817Z" fill="#072e53" stroke="#072e53" stroke-width="1.51"/><path d="M380,-178L250,-41L402,-124Z" fill="#05172d" stroke="#05172d" stroke-width="1.51"/><path d="M255,-197L250,-41L380,-178Z" fill="#05162b" stroke="#05162b" stroke-width="1.51"/><path d="M272,654L244,822L376,799Z" fill="#093158" stroke="#093158" stroke-width="1.51"/><path d="M385,9L300,7L390,34Z" fill="#031c37" stroke="#031c37" stroke-width="1.51"/><path d="M300,7L280,55L390,34Z" fill="#031c37" stroke="#031c37" stroke-width="1.51"/><path d="M228,955L316,1004L352,860Z" fill="#052a4e" stroke="#052a4e" stroke-width="1.51"/><path d="M244,867L228,955L352,860Z" fill="#06294b" stroke="#06294b" stroke-width="1.51"/><path d="M309,158L186,209L361,323Z" fill="#022243" stroke="#022243" stroke-width="1.51"/><path d="M186,209L225,362L361,323Z" fill="#03274c" stroke="#03274c" stroke-width="1.51"/><path d="M244,822L352,860L376,799Z" fill="#072d51" stroke="#072d51" stroke-width="1.51"/><path d="M253,414L279,431L361,323Z" fill="#032d57" stroke="#032d57" stroke-width="1.51"/><path d="M225,362L253,414L361,323Z" fill="#032c54" stroke="#032c54" stroke-width="1.51"/><path d="M316,1004L164,1112L362,1143Z" fill="#05294c" stroke="#05294c" stroke-width="1.51"/><path d="M164,1112L285,1273L362,1143Z" fill="#06284a" stroke="#06284a" stroke-width="1.51"/><path d="M164,1112L202,1264L285,1273Z" fill="#072b4d" stroke="#072b4d" stroke-width="1.51"/><path d="M244,822L244,867L352,860Z" fill="#062a4d" stroke="#062a4d" stroke-width="1.51"/><path d="M279,431L255,577L349,517Z" fill="#05325f" stroke="#05325f" stroke-width="1.51"/><path d="M280,55L202,104L309,158Z" fill="#021d3a" stroke="#021d3a" stroke-width="1.51"/><path d="M228,955L164,1112L316,1004Z" fill="#042a50" stroke="#042a50" stroke-width="1.51"/><path d="M143,475L255,577L279,431Z" fill="#05315c" stroke="#05315c" stroke-width="1.51"/><path d="M202,104L186,209L309,158Z" fill="#021e3b" stroke="#021e3b" stroke-width="1.51"/><path d="M255,577L226,632L272,654Z" fill="#073562" stroke="#073562" stroke-width="1.51"/><path d="M226,632L244,822L272,654Z" fill="#08335b" stroke="#08335b" stroke-width="1.51"/><path d="M253,414L143,475L279,431Z" fill="#042e58" stroke="#042e58" stroke-width="1.51"/><path d="M250,-41L280,55L300,7Z" fill="#031a33" stroke="#031a33" stroke-width="1.51"/><path d="M250,-41L202,104L280,55Z" fill="#021b35" stroke="#021b35" stroke-width="1.51"/><path d="M226,632L57,772L244,822Z" fill="#0a2f54" stroke="#0a2f54" stroke-width="1.51"/><path d="M64,-139L250,-41L255,-197Z" fill="#041428" stroke="#041428" stroke-width="1.51"/><path d="M120,962L164,1112L228,955Z" fill="#05294c" stroke="#05294c" stroke-width="1.51"/><path d="M57,772L153,863L244,822Z" fill="#08294a" stroke="#08294a" stroke-width="1.51"/><path d="M153,863L228,955L244,867Z" fill="#052748" stroke="#052748" stroke-width="1.51"/><path d="M78,87L202,104L250,-41Z" fill="#031a32" stroke="#031a32" stroke-width="1.51"/><path d="M42,-4L78,87L250,-41Z" fill="#03172c" stroke="#03172c" stroke-width="1.51"/><path d="M143,475L226,632L255,577Z" fill="#06335e" stroke="#06335e" stroke-width="1.51"/><path d="M34,-173L64,-139L255,-197Z" fill="#041122" stroke="#041122" stroke-width="1.51"/><path d="M59,637L57,772L226,632Z" fill="#092f55" stroke="#092f55" stroke-width="1.51"/><path d="M225,362L143,475L253,414Z" fill="#042d55" stroke="#042d55" stroke-width="1.51"/><path d="M146,160L186,209L202,104Z" fill="#031d38" stroke="#031d38" stroke-width="1.51"/><path d="M64,-139L42,-4L250,-41Z" fill="#021226" stroke="#021226" stroke-width="1.51"/><path d="M186,209L75,358L225,362Z" fill="#042648" stroke="#042648" stroke-width="1.51"/><path d="M244,822L153,863L244,867Z" fill="#06294a" stroke="#06294a" stroke-width="1.51"/><path d="M56,518L59,637L143,475Z" fill="#082e55" stroke="#082e55" stroke-width="1.51"/><path d="M164,1112L54,1185L202,1264Z" fill="#062644" stroke="#062644" stroke-width="1.51"/><path d="M75,358L143,475L225,362Z" fill="#052a50" stroke="#052a50" stroke-width="1.51"/><path d="M143,475L59,637L226,632Z" fill="#08315b" stroke="#08315b" stroke-width="1.51"/><path d="M153,863L120,962L228,955Z" fill="#062647" stroke="#062647" stroke-width="1.51"/><path d="M120,962L69,1099L164,1112Z" fill="#052546" stroke="#052546" stroke-width="1.51"/><path d="M9,272L75,358L186,209Z" fill="#042140" stroke="#042140" stroke-width="1.51"/><path d="M54,1185L34,1228L202,1264Z" fill="#082747" stroke="#082747" stroke-width="1.51"/><path d="M78,87L146,160L202,104Z" fill="#031b34" stroke="#031b34" stroke-width="1.51"/><path d="M146,160L9,272L186,209Z" fill="#031d39" stroke="#031d39" stroke-width="1.51"/><path d="M33,1035L69,1099L120,962Z" fill="#052546" stroke="#052546" stroke-width="1.51"/><path d="M-11,223L9,272L146,160Z" fill="#031b35" stroke="#031b35" stroke-width="1.51"/><path d="M57,772L39,849L153,863Z" fill="#082645" stroke="#082645" stroke-width="1.51"/><path d="M69,1099L54,1185L164,1112Z" fill="#07223e" stroke="#07223e" stroke-width="1.51"/><path d="M75,358L29,394L143,475Z" fill="#06284d" stroke="#06284d" stroke-width="1.51"/><path d="M39,849L120,962L153,863Z" fill="#062441" stroke="#062441" stroke-width="1.51"/><path d="M29,394L56,518L143,475Z" fill="#062b50" stroke="#062b50" stroke-width="1.51"/><path d="M78,87L-11,223L146,160Z" fill="#031a32" stroke="#031a32" stroke-width="1.51"/><path d="M56,518L8,576L59,637Z" fill="#082e54" stroke="#082e54" stroke-width="1.51"/><path d="M39,849L33,1035L120,962Z" fill="#062443" stroke="#062443" stroke-width="1.51"/><path d="M-55,822L33,1035L39,849Z" fill="#07213d" stroke="#07213d" stroke-width="1.51"/><path d="M-27,689L57,772L59,637Z" fill="#0b2c4e" stroke="#0b2c4e" stroke-width="1.51"/><path d="M-45,-47L42,-4L64,-139Z" fill="#010f20" stroke="#010f20" stroke-width="1.51"/><path d="M-52,1122L54,1185L69,1099Z" fill="#07203a" stroke="#07203a" stroke-width="1.51"/><path d="M9,272L29,394L75,358Z" fill="#052445" stroke="#052445" stroke-width="1.51"/><path d="M42,-4L-49,52L78,87Z" fill="#03152a" stroke="#03152a" stroke-width="1.51"/><path d="M-49,52L-11,223L78,87Z" fill="#03172d" stroke="#03172d" stroke-width="1.51"/><path d="M-55,822L-111,1052L33,1035Z" fill="#082240" stroke="#082240" stroke-width="1.51"/><path d="M34,-173L-45,-47L64,-139Z" fill="#010e1e" stroke="#010e1e" stroke-width="1.51"/><path d="M33,1035L-52,1122L69,1099Z" fill="#06213e" stroke="#06213e" stroke-width="1.51"/><path d="M29,394L-138,520L56,518Z" fill="#09294e" stroke="#09294e" stroke-width="1.51"/><path d="M-123,841L-111,1052L-55,822Z" fill="#09213b" stroke="#09213b" stroke-width="1.51"/><path d="M-148,443L-138,520L29,394Z" fill="#0a284a" stroke="#0a284a" stroke-width="1.51"/><path d="M-138,520L8,576L56,518Z" fill="#0a2b50" stroke="#0a2b50" stroke-width="1.51"/><path d="M-55,822L39,849L57,772Z" fill="#082543" stroke="#082543" stroke-width="1.51"/><path d="M8,576L-27,689L59,637Z" fill="#092d53" stroke="#092d53" stroke-width="1.51"/><path d="M-27,689L-55,822L57,772Z" fill="#0b2948" stroke="#0b2948" stroke-width="1.51"/><path d="M-52,1122L34,1228L54,1185Z" fill="#07213c" stroke="#07213c" stroke-width="1.51"/><path d="M-79,1084L-52,1122L33,1035Z" fill="#08223d" stroke="#08223d" stroke-width="1.51"/><path d="M-108,-127L-45,-47L34,-173Z" fill="#010d1d" stroke="#010d1d" stroke-width="1.51"/><path d="M-45,-47L-49,52L42,-4Z" fill="#031225" stroke="#031225" stroke-width="1.51"/><path d="M-49,52L-106,222L-11,223Z" fill="#05182e" stroke="#05182e" stroke-width="1.51"/><path d="M9,272L-178,311L29,394Z" fill="#072241" stroke="#072241" stroke-width="1.51"/><path d="M-178,311L-148,443L29,394Z" fill="#0a2544" stroke="#0a2544" stroke-width="1.51"/><path d="M-111,1052L-79,1084L33,1035Z" fill="#08223f" stroke="#08223f" stroke-width="1.51"/><path d="M-52,1122L-131,1271L34,1228Z" fill="#0a233e" stroke="#0a233e" stroke-width="1.51"/><path d="M-118,765L-55,822L-27,689Z" fill="#0c2947" stroke="#0c2947" stroke-width="1.51"/><path d="M-136,614L-27,689L8,576Z" fill="#0d2d52" stroke="#0d2d52" stroke-width="1.51"/><path d="M-11,223L-106,222L9,272Z" fill="#051c36" stroke="#051c36" stroke-width="1.51"/><path d="M-106,222L-178,311L9,272Z" fill="#071e38" stroke="#071e38" stroke-width="1.51"/><path d="M-138,520L-136,614L8,576Z" fill="#0c2c50" stroke="#0c2c50" stroke-width="1.51"/><path d="M-171,122L-106,222L-49,52Z" fill="#06172b" stroke="#06172b" stroke-width="1.51"/><path d="M-130,-22L-49,52L-45,-47Z" fill="#031223" stroke="#031223" stroke-width="1.51"/><path d="M-136,614L-118,765L-27,689Z" fill="#0e2c4c" stroke="#0e2c4c" stroke-width="1.51"/><path d="M-79,1084L-131,1271L-52,1122Z" fill="#092037" stroke="#092037" stroke-width="1.51"/><path d="M-108,-127L-130,-22L-45,-47Z" fill="#010e1e" stroke="#010e1e" stroke-width="1.51"/><path d="M-130,-22L-171,122L-49,52Z" fill="#051528" stroke="#051528" stroke-width="1.51"/><path d="M-118,765L-123,841L-55,822Z" fill="#0c2540" stroke="#0c2540" stroke-width="1.51"/><path d="M-111,1052L-131,1271L-79,1084Z" fill="#092037" stroke="#092037" stroke-width="1.51"/><path d="M-171,122L-130,-22L-108,-127Z" fill="#041122" stroke="#041122" stroke-width="1.51"/><path d="M-171,122L-178,311L-106,222Z" fill="#071a30" stroke="#071a30" stroke-width="1.51"/><path d="M-123,841L-131,1271L-111,1052Z" fill="#0a223e" stroke="#0a223e" stroke-width="1.51"/><path d="M-136,614L-123,841L-118,765Z" fill="#0f2a48" stroke="#0f2a48" stroke-width="1.51"/><path d="M-178,311L-131,1271L-123,841Z" fill="#0d2540" stroke="#0d2540" stroke-width="1.51"/><path d="M-136,614L-178,311L-123,841Z" fill="#0f2d51" stroke="#0f2d51" stroke-width="1.51"/><path d="M-138,520L-148,443L-136,614Z" fill="#0e2a4d" stroke="#0e2a4d" stroke-width="1.51"/><path d="M-148,443L-178,311L-136,614Z" fill="#0d2848" stroke="#0d2848" stroke-width="1.51"/></svg>