<svg xmlns="http://www.w3.org/2000/svg" width="1920" height="1080"><path d="M-159,-169L519,-211L913,-275Z" fill="#061a31" stroke="#061a31" stroke-width="1.51"/><path d="M550,1281L7,1335L1007,1303Z" fill="#083662" stroke="#083662" stroke-width="1.51"/><path d="M1245,1254L1007,1303L1693,1334Z" fill="#104070" stroke="#104070" stroke-width="1.51"/><path d="M1693,1334L1007,1303L1731,1337Z" fill="#0e3c68" stroke="#0e3c68" stroke-width="1.51"/><path d="M1007,1303L7,1335L1731,1337Z" fill="#0d447b" stroke="#0d447b" stroke-width="1.51"/><path d="M913,-275L1412,-266L1925,-278Z" fill="#0d243f" stroke="#0d243f" stroke-width="1.51"/><path d="M1632,-216L1776,-226L1925,-278Z" fill="#0b233f" stroke="#0b233f" stroke-width="1.51"/><path d="M1412,-266L1632,-216L1925,-278Z" fill="#0b223d" stroke="#0b223d" stroke-width="1.51"/><path d="M1731,1337L7,1335L2027,1355Z" fill="#11467a" stroke="#11467a" stroke-width="1.51"/><path d="M2058,548L2028,793L2070,803Z" fill="#104171" stroke="#104171" stroke-width="1.51"/><path d="M2050,1302L2027,1355L2132,1179Z" fill="#0d3a64" stroke="#0d3a64" stroke-width="1.51"/><path d="M2058,548L2070,803L2154,389Z" fill="#0e447b" stroke="#0e447b" stroke-width="1.51"/><path d="M1931,1077L2132,1179L2169,995Z" fill="#0a3967" stroke="#0a3967" stroke-width="1.51"/><path d="M2154,389L2070,803L2169,995Z" fill="#114477" stroke="#114477" stroke-width="1.51"/><path d="M2164,-77L2005,-32L2180,176Z" fill="#072d52" stroke="#072d52" stroke-width="1.51"/><path d="M2005,-32L1968,124L2180,176Z" fill="#062b4f" stroke="#062b4f" stroke-width="1.51"/><path d="M2070,313L2154,389L2180,176Z" fill="#093a6a" stroke="#093a6a" stroke-width="1.51"/><path d="M2154,389L2169,995L2180,176Z" fill="#0d467e" stroke="#0d467e" stroke-width="1.51"/><path d="M2005,-32L2164,-77L2190,-188Z" fill="#082847" stroke="#082847" stroke-width="1.51"/><path d="M1925,-278L2005,-32L2190,-188Z" fill="#09233d" stroke="#09233d" stroke-width="1.51"/><path d="M2164,-77L2180,176L2190,-188Z" fill="#082e53" stroke="#082e53" stroke-width="1.51"/><path d="M2070,803L1952,880L2169,995Z" fill="#0d3761" stroke="#0d3761" stroke-width="1.51"/><path d="M1968,124L2070,313L2180,176Z" fill="#073159" stroke="#073159" stroke-width="1.51"/><path d="M1952,880L1931,1077L2169,995Z" fill="#0b355e" stroke="#0b355e" stroke-width="1.51"/><path d="M1928,399L2058,548L2154,389Z" fill="#0b3d6f" stroke="#0b3d6f" stroke-width="1.51"/><path d="M1984,326L1928,399L2154,389Z" fill="#093967" stroke="#093967" stroke-width="1.51"/><path d="M2070,313L1984,326L2154,389Z" fill="#0a3a69" stroke="#0a3a69" stroke-width="1.51"/><path d="M1931,1077L2050,1302L2132,1179Z" fill="#0c345b" stroke="#0c345b" stroke-width="1.51"/><path d="M1874,610L2028,793L2058,548Z" fill="#0e3f70" stroke="#0e3f70" stroke-width="1.51"/><path d="M2028,793L1952,880L2070,803Z" fill="#0e3964" stroke="#0e3964" stroke-width="1.51"/><path d="M1968,124L1984,326L2070,313Z" fill="#08315a" stroke="#08315a" stroke-width="1.51"/><path d="M788,1273L550,1281L1007,1303Z" fill="#0b3e70" stroke="#0b3e70" stroke-width="1.51"/><path d="M1931,1077L1772,1145L2050,1302Z" fill="#0a3259" stroke="#0a3259" stroke-width="1.51"/><path d="M1928,399L1874,610L2058,548Z" fill="#0c3d6d" stroke="#0c3d6d" stroke-width="1.51"/><path d="M1772,1145L1731,1337L2027,1355Z" fill="#0b3762" stroke="#0b3762" stroke-width="1.51"/><path d="M1874,610L1826,651L2028,793Z" fill="#0e3f70" stroke="#0e3f70" stroke-width="1.51"/><path d="M1772,1145L2027,1355L2050,1302Z" fill="#0c345b" stroke="#0c345b" stroke-width="1.51"/><path d="M1826,651L1773,728L1952,880Z" fill="#0f3e6e" stroke="#0f3e6e" stroke-width="1.51"/><path d="M1925,-278L1776,-226L2005,-32Z" fill="#08203b" stroke="#08203b" stroke-width="1.51"/><path d="M1826,651L1952,880L2028,793Z" fill="#0f3b67" stroke="#0f3b67" stroke-width="1.51"/><path d="M1968,124L1828,338L1984,326Z" fill="#07315a" stroke="#07315a" stroke-width="1.51"/><path d="M1776,-226L1754,34L2005,-32Z" fill="#062444" stroke="#062444" stroke-width="1.51"/><path d="M1754,34L1968,124L2005,-32Z" fill="#052849" stroke="#052849" stroke-width="1.51"/><path d="M1802,907L1931,1077L1952,880Z" fill="#0a345c" stroke="#0a345c" stroke-width="1.51"/><path d="M1714,209L1828,338L1968,124Z" fill="#06305a" stroke="#06305a" stroke-width="1.51"/><path d="M1828,338L1928,399L1984,326Z" fill="#083665" stroke="#083665" stroke-width="1.51"/><path d="M1757,481L1874,610L1928,399Z" fill="#093e72" stroke="#093e72" stroke-width="1.51"/><path d="M1773,728L1802,907L1952,880Z" fill="#0d3965" stroke="#0d3965" stroke-width="1.51"/><path d="M1754,34L1714,209L1968,124Z" fill="#042b52" stroke="#042b52" stroke-width="1.51"/><path d="M1828,338L1757,481L1928,399Z" fill="#083a6c" stroke="#083a6c" stroke-width="1.51"/><path d="M1802,907L1772,1145L1931,1077Z" fill="#083665" stroke="#083665" stroke-width="1.51"/><path d="M1443,1239L1245,1254L1693,1334Z" fill="#0d3963" stroke="#0d3963" stroke-width="1.51"/><path d="M1641,-26L1754,34L1776,-226Z" fill="#052648" stroke="#052648" stroke-width="1.51"/><path d="M1664,961L1772,1145L1802,907Z" fill="#073867" stroke="#073867" stroke-width="1.51"/><path d="M1757,481L1826,651L1874,610Z" fill="#0a4178" stroke="#0a4178" stroke-width="1.51"/><path d="M1650,123L1714,209L1754,34Z" fill="#042c54" stroke="#042c54" stroke-width="1.51"/><path d="M1632,-216L1641,-26L1776,-226Z" fill="#072341" stroke="#072341" stroke-width="1.51"/><path d="M1757,481L1670,485L1826,651Z" fill="#08417a" stroke="#08417a" stroke-width="1.51"/><path d="M1589,640L1773,728L1826,651Z" fill="#0c4279" stroke="#0c4279" stroke-width="1.51"/><path d="M1670,485L1589,640L1826,651Z" fill="#0a437b" stroke="#0a437b" stroke-width="1.51"/><path d="M1670,485L1757,481L1828,338Z" fill="#073d73" stroke="#073d73" stroke-width="1.51"/><path d="M1714,209L1670,485L1828,338Z" fill="#063a6c" stroke="#063a6c" stroke-width="1.51"/><path d="M1547,282L1670,485L1714,209Z" fill="#073767" stroke="#073767" stroke-width="1.51"/><path d="M1693,1334L1731,1337L1772,1145Z" fill="#0a3966" stroke="#0a3966" stroke-width="1.51"/><path d="M1561,799L1664,961L1773,728Z" fill="#0c3a68" stroke="#0c3a68" stroke-width="1.51"/><path d="M1773,728L1664,961L1802,907Z" fill="#0a3a67" stroke="#0a3a67" stroke-width="1.51"/><path d="M1575,1083L1693,1334L1772,1145Z" fill="#09345e" stroke="#09345e" stroke-width="1.51"/><path d="M1664,961L1575,1083L1772,1145Z" fill="#073868" stroke="#073868" stroke-width="1.51"/><path d="M1589,640L1561,799L1773,728Z" fill="#0e4071" stroke="#0e4071" stroke-width="1.51"/><path d="M-159,-169L122,-153L519,-211Z" fill="#04152a" stroke="#04152a" stroke-width="1.51"/><path d="M1641,-26L1650,123L1754,34Z" fill="#042a4f" stroke="#042a4f" stroke-width="1.51"/><path d="M1575,1083L1443,1239L1693,1334Z" fill="#0b3259" stroke="#0b3259" stroke-width="1.51"/><path d="M1632,-216L1521,-114L1641,-26Z" fill="#062340" stroke="#062340" stroke-width="1.51"/><path d="M1650,123L1547,282L1714,209Z" fill="#052f58" stroke="#052f58" stroke-width="1.51"/><path d="M1411,461L1589,640L1670,485Z" fill="#0b3f72" stroke="#0b3f72" stroke-width="1.51"/><path d="M1547,282L1411,461L1670,485Z" fill="#093a6a" stroke="#093a6a" stroke-width="1.51"/><path d="M1641,-26L1430,152L1650,123Z" fill="#05294d" stroke="#05294d" stroke-width="1.51"/><path d="M1561,799L1490,810L1664,961Z" fill="#0c3762" stroke="#0c3762" stroke-width="1.51"/><path d="M1412,1006L1575,1083L1664,961Z" fill="#0a3560" stroke="#0a3560" stroke-width="1.51"/><path d="M1490,810L1412,1006L1664,961Z" fill="#0b335a" stroke="#0b335a" stroke-width="1.51"/><path d="M1521,-114L1430,152L1641,-26Z" fill="#052748" stroke="#052748" stroke-width="1.51"/><path d="M1430,152L1547,282L1650,123Z" fill="#062d52" stroke="#062d52" stroke-width="1.51"/><path d="M1411,461L1484,659L1589,640Z" fill="#0d4176" stroke="#0d4176" stroke-width="1.51"/><path d="M1484,659L1561,799L1589,640Z" fill="#0e3f70" stroke="#0e3f70" stroke-width="1.51"/><path d="M1412,-266L1521,-114L1632,-216Z" fill="#09203a" stroke="#09203a" stroke-width="1.51"/><path d="M1484,659L1490,810L1561,799Z" fill="#0f3e6b" stroke="#0f3e6b" stroke-width="1.51"/><path d="M1385,1148L1443,1239L1575,1083Z" fill="#0c355f" stroke="#0c355f" stroke-width="1.51"/><path d="M1394,272L1411,461L1547,282Z" fill="#0a3a69" stroke="#0a3a69" stroke-width="1.51"/><path d="M1412,1006L1385,1148L1575,1083Z" fill="#0b3966" stroke="#0b3966" stroke-width="1.51"/><path d="M1185,1251L1007,1303L1245,1254Z" fill="#0f4275" stroke="#0f4275" stroke-width="1.51"/><path d="M1430,152L1394,272L1547,282Z" fill="#08335c" stroke="#08335c" stroke-width="1.51"/><path d="M1224,28L1430,152L1521,-114Z" fill="#072d51" stroke="#072d51" stroke-width="1.51"/><path d="M1340,-185L1224,28L1521,-114Z" fill="#08294a" stroke="#08294a" stroke-width="1.51"/><path d="M1484,659L1354,703L1490,810Z" fill="#114172" stroke="#114172" stroke-width="1.51"/><path d="M1412,-266L1340,-185L1521,-114Z" fill="#0b2541" stroke="#0b2541" stroke-width="1.51"/><path d="M1411,461L1354,703L1484,659Z" fill="#0f457c" stroke="#0f457c" stroke-width="1.51"/><path d="M1298,963L1412,1006L1490,810Z" fill="#0d3863" stroke="#0d3863" stroke-width="1.51"/><path d="M1354,703L1298,963L1490,810Z" fill="#113f6d" stroke="#113f6d" stroke-width="1.51"/><path d="M1238,752L1298,963L1354,703Z" fill="#124475" stroke="#124475" stroke-width="1.51"/><path d="M1394,272L1272,423L1411,461Z" fill="#0c3f73" stroke="#0c3f73" stroke-width="1.51"/><path d="M1272,423L1354,703L1411,461Z" fill="#0f467d" stroke="#0f467d" stroke-width="1.51"/><path d="M1044,-173L1340,-185L1412,-266Z" fill="#0e2a4a" stroke="#0e2a4a" stroke-width="1.51"/><path d="M913,-275L1044,-173L1412,-266Z" fill="#0f2d4f" stroke="#0f2d4f" stroke-width="1.51"/><path d="M1331,1126L1385,1148L1412,1006Z" fill="#0c3b6a" stroke="#0c3b6a" stroke-width="1.51"/><path d="M1385,1148L1245,1254L1443,1239Z" fill="#0e3962" stroke="#0e3962" stroke-width="1.51"/><path d="M1224,28L1207,181L1430,152Z" fill="#09335d" stroke="#09335d" stroke-width="1.51"/><path d="M1222,228L1394,272L1430,152Z" fill="#0a3662" stroke="#0a3662" stroke-width="1.51"/><path d="M1207,181L1222,228L1430,152Z" fill="#0a3662" stroke="#0a3662" stroke-width="1.51"/><path d="M1331,1126L1245,1254L1385,1148Z" fill="#0e3b68" stroke="#0e3b68" stroke-width="1.51"/><path d="M1298,963L1331,1126L1412,1006Z" fill="#0d3d6d" stroke="#0d3d6d" stroke-width="1.51"/><path d="M1272,423L1238,752L1354,703Z" fill="#124b85" stroke="#124b85" stroke-width="1.51"/><path d="M1222,228L1272,423L1394,272Z" fill="#0c3f71" stroke="#0c3f71" stroke-width="1.51"/><path d="M1100,699L1238,752L1272,423Z" fill="#114d89" stroke="#114d89" stroke-width="1.51"/><path d="M1090,-56L1224,28L1340,-185Z" fill="#0a2e54" stroke="#0a2e54" stroke-width="1.51"/><path d="M1181,395L1100,699L1272,423Z" fill="#0e4a85" stroke="#0e4a85" stroke-width="1.51"/><path d="M1222,228L1181,395L1272,423Z" fill="#0c4278" stroke="#0c4278" stroke-width="1.51"/><path d="M1238,752L1127,901L1298,963Z" fill="#114172" stroke="#114172" stroke-width="1.51"/><path d="M1298,963L1060,1167L1331,1126Z" fill="#0d4174" stroke="#0d4174" stroke-width="1.51"/><path d="M1044,-173L1090,-56L1340,-185Z" fill="#0a2d51" stroke="#0a2d51" stroke-width="1.51"/><path d="M1060,1167L1185,1251L1331,1126Z" fill="#0e3e6e" stroke="#0e3e6e" stroke-width="1.51"/><path d="M1185,1251L1245,1254L1331,1126Z" fill="#0f3c69" stroke="#0f3c69" stroke-width="1.51"/><path d="M519,-211L561,-207L913,-275Z" fill="#0a2443" stroke="#0a2443" stroke-width="1.51"/><path d="M1009,1043L1060,1167L1127,901Z" fill="#0b447c" stroke="#0b447c" stroke-width="1.51"/><path d="M1031,436L1100,699L1181,395Z" fill="#0d4b8a" stroke="#0d4b8a" stroke-width="1.51"/><path d="M1129,333L1181,395L1222,228Z" fill="#0b4279" stroke="#0b4279" stroke-width="1.51"/><path d="M1112,823L1127,901L1238,752Z" fill="#11467a" stroke="#11467a" stroke-width="1.51"/><path d="M1127,901L1060,1167L1298,963Z" fill="#0d4176" stroke="#0d4176" stroke-width="1.51"/><path d="M1060,66L1207,181L1224,28Z" fill="#083562" stroke="#083562" stroke-width="1.51"/><path d="M1100,699L1112,823L1238,752Z" fill="#134a82" stroke="#134a82" stroke-width="1.51"/><path d="M1090,-56L1060,66L1224,28Z" fill="#073460" stroke="#073460" stroke-width="1.51"/><path d="M1207,181L1129,333L1222,228Z" fill="#0a3c6f" stroke="#0a3c6f" stroke-width="1.51"/><path d="M1009,206L1129,333L1207,181Z" fill="#083d71" stroke="#083d71" stroke-width="1.51"/><path d="M1060,66L1009,206L1207,181Z" fill="#073868" stroke="#073868" stroke-width="1.51"/><path d="M1060,1167L1007,1303L1185,1251Z" fill="#0e4274" stroke="#0e4274" stroke-width="1.51"/><path d="M1031,436L927,646L1100,699Z" fill="#0e4d8e" stroke="#0e4d8e" stroke-width="1.51"/><path d="M1129,333L1031,436L1181,395Z" fill="#0b4681" stroke="#0b4681" stroke-width="1.51"/><path d="M917,986L1009,1043L1127,901Z" fill="#0b4177" stroke="#0b4177" stroke-width="1.51"/><path d="M1009,206L1031,436L1129,333Z" fill="#09447e" stroke="#09447e" stroke-width="1.51"/><path d="M1100,699L933,744L1112,823Z" fill="#124b85" stroke="#124b85" stroke-width="1.51"/><path d="M1112,823L917,986L1127,901Z" fill="#0e4275" stroke="#0e4275" stroke-width="1.51"/><path d="M1009,206L898,360L1031,436Z" fill="#08427c" stroke="#08427c" stroke-width="1.51"/><path d="M933,744L917,986L1112,823Z" fill="#0e4379" stroke="#0e4379" stroke-width="1.51"/><path d="M927,646L933,744L1100,699Z" fill="#0f4c87" stroke="#0f4c87" stroke-width="1.51"/><path d="M882,-73L1060,66L1090,-56Z" fill="#07325d" stroke="#07325d" stroke-width="1.51"/><path d="M1044,-173L882,-73L1090,-56Z" fill="#082e56" stroke="#082e56" stroke-width="1.51"/><path d="M779,133L1009,206L1060,66Z" fill="#053563" stroke="#053563" stroke-width="1.51"/><path d="M882,-73L779,133L1060,66Z" fill="#05325e" stroke="#05325e" stroke-width="1.51"/><path d="M1009,1043L855,1175L1060,1167Z" fill="#0b4075" stroke="#0b4075" stroke-width="1.51"/><path d="M855,1175L1007,1303L1060,1167Z" fill="#0c3d6e" stroke="#0c3d6e" stroke-width="1.51"/><path d="M898,360L927,646L1031,436Z" fill="#0a4885" stroke="#0a4885" stroke-width="1.51"/><path d="M913,-275L865,-160L1044,-173Z" fill="#0c2b4f" stroke="#0c2b4f" stroke-width="1.51"/><path d="M865,-160L882,-73L1044,-173Z" fill="#082b51" stroke="#082b51" stroke-width="1.51"/><path d="M898,360L734,519L927,646Z" fill="#094683" stroke="#094683" stroke-width="1.51"/><path d="M855,1175L788,1273L1007,1303Z" fill="#0c3e70" stroke="#0c3e70" stroke-width="1.51"/><path d="M917,986L855,1175L1009,1043Z" fill="#084179" stroke="#084179" stroke-width="1.51"/><path d="M844,333L898,360L1009,206Z" fill="#073f76" stroke="#073f76" stroke-width="1.51"/><path d="M779,133L844,333L1009,206Z" fill="#05386b" stroke="#05386b" stroke-width="1.51"/><path d="M830,-73L779,133L882,-73Z" fill="#042e58" stroke="#042e58" stroke-width="1.51"/><path d="M844,333L734,519L898,360Z" fill="#07427b" stroke="#07427b" stroke-width="1.51"/><path d="M734,519L737,661L927,646Z" fill="#0b4986" stroke="#0b4986" stroke-width="1.51"/><path d="M721,886L917,986L933,744Z" fill="#0c3f72" stroke="#0c3f72" stroke-width="1.51"/><path d="M713,851L721,886L933,744Z" fill="#0c4074" stroke="#0c4074" stroke-width="1.51"/><path d="M927,646L737,661L933,744Z" fill="#0e4984" stroke="#0e4984" stroke-width="1.51"/><path d="M737,661L713,851L933,744Z" fill="#0e457c" stroke="#0e457c" stroke-width="1.51"/><path d="M660,1084L855,1175L917,986Z" fill="#073d72" stroke="#073d72" stroke-width="1.51"/><path d="M721,886L660,1084L917,986Z" fill="#083b6d" stroke="#083b6d" stroke-width="1.51"/><path d="M561,-207L865,-160L913,-275Z" fill="#0a2748" stroke="#0a2748" stroke-width="1.51"/><path d="M706,87L779,133L830,-73Z" fill="#042f59" stroke="#042f59" stroke-width="1.51"/><path d="M865,-160L830,-73L882,-73Z" fill="#062b51" stroke="#062b51" stroke-width="1.51"/><path d="M678,807L713,851L737,661Z" fill="#0d4176" stroke="#0d4176" stroke-width="1.51"/><path d="M561,-207L830,-73L865,-160Z" fill="#072649" stroke="#072649" stroke-width="1.51"/><path d="M779,133L590,353L844,333Z" fill="#04386b" stroke="#04386b" stroke-width="1.51"/><path d="M660,1084L788,1273L855,1175Z" fill="#093969" stroke="#093969" stroke-width="1.51"/><path d="M590,353L734,519L844,333Z" fill="#063e76" stroke="#063e76" stroke-width="1.51"/><path d="M615,11L706,87L830,-73Z" fill="#032b54" stroke="#032b54" stroke-width="1.51"/><path d="M561,-207L615,11L830,-73Z" fill="#052749" stroke="#052749" stroke-width="1.51"/><path d="M706,87L590,353L779,133Z" fill="#03315e" stroke="#03315e" stroke-width="1.51"/><path d="M660,1084L550,1281L788,1273Z" fill="#093561" stroke="#093561" stroke-width="1.51"/><path d="M205,1232L7,1335L550,1281Z" fill="#062c50" stroke="#062c50" stroke-width="1.51"/><path d="M590,353L561,422L734,519Z" fill="#053d74" stroke="#053d74" stroke-width="1.51"/><path d="M122,-153L268,-134L519,-211Z" fill="#04182d" stroke="#04182d" stroke-width="1.51"/><path d="M428,148L590,353L706,87Z" fill="#032d57" stroke="#032d57" stroke-width="1.51"/><path d="M561,961L660,1084L721,886Z" fill="#073767" stroke="#073767" stroke-width="1.51"/><path d="M561,422L603,570L734,519Z" fill="#074078" stroke="#074078" stroke-width="1.51"/><path d="M526,676L678,807L737,661Z" fill="#0c4177" stroke="#0c4177" stroke-width="1.51"/><path d="M603,570L526,676L737,661Z" fill="#0a437c" stroke="#0a437c" stroke-width="1.51"/><path d="M734,519L603,570L737,661Z" fill="#094580" stroke="#094580" stroke-width="1.51"/><path d="M362,1215L205,1232L550,1281Z" fill="#062b4e" stroke="#062b4e" stroke-width="1.51"/><path d="M615,11L428,148L706,87Z" fill="#032950" stroke="#032950" stroke-width="1.51"/><path d="M713,851L561,961L721,886Z" fill="#093766" stroke="#093766" stroke-width="1.51"/><path d="M678,807L561,961L713,851Z" fill="#093968" stroke="#093968" stroke-width="1.51"/><path d="M487,1218L550,1281L660,1084Z" fill="#07325b" stroke="#07325b" stroke-width="1.51"/><path d="M510,1092L487,1218L660,1084Z" fill="#063360" stroke="#063360" stroke-width="1.51"/><path d="M485,754L561,961L678,807Z" fill="#0a3866" stroke="#0a3866" stroke-width="1.51"/><path d="M526,676L485,754L678,807Z" fill="#0b3d6e" stroke="#0b3d6e" stroke-width="1.51"/><path d="M561,-207L450,-2L615,11Z" fill="#042243" stroke="#042243" stroke-width="1.51"/><path d="M561,961L511,1028L660,1084Z" fill="#063564" stroke="#063564" stroke-width="1.51"/><path d="M511,1028L510,1092L660,1084Z" fill="#043565" stroke="#043565" stroke-width="1.51"/><path d="M519,-211L450,-2L561,-207Z" fill="#041e3a" stroke="#041e3a" stroke-width="1.51"/><path d="M428,148L483,367L590,353Z" fill="#03305c" stroke="#03305c" stroke-width="1.51"/><path d="M561,422L523,442L603,570Z" fill="#063c71" stroke="#063c71" stroke-width="1.51"/><path d="M450,-2L428,148L615,11Z" fill="#032547" stroke="#032547" stroke-width="1.51"/><path d="M379,591L526,676L603,570Z" fill="#083e73" stroke="#083e73" stroke-width="1.51"/><path d="M523,442L379,591L603,570Z" fill="#063b6e" stroke="#063b6e" stroke-width="1.51"/><path d="M483,367L561,422L590,353Z" fill="#043769" stroke="#043769" stroke-width="1.51"/><path d="M487,1218L362,1215L550,1281Z" fill="#072e54" stroke="#072e54" stroke-width="1.51"/><path d="M260,929L511,1028L561,961Z" fill="#052e56" stroke="#052e56" stroke-width="1.51"/><path d="M485,754L260,929L561,961Z" fill="#072e55" stroke="#072e55" stroke-width="1.51"/><path d="M483,367L523,442L561,422Z" fill="#043769" stroke="#043769" stroke-width="1.51"/><path d="M332,733L260,929L485,754Z" fill="#093259" stroke="#093259" stroke-width="1.51"/><path d="M268,-134L450,-2L519,-211Z" fill="#031a34" stroke="#031a34" stroke-width="1.51"/><path d="M379,591L485,754L526,676Z" fill="#093a6b" stroke="#093a6b" stroke-width="1.51"/><path d="M362,1215L487,1218L510,1092Z" fill="#062d53" stroke="#062d53" stroke-width="1.51"/><path d="M483,367L379,591L523,442Z" fill="#053767" stroke="#053767" stroke-width="1.51"/><path d="M243,460L379,591L483,367Z" fill="#043461" stroke="#043461" stroke-width="1.51"/><path d="M428,148L246,267L483,367Z" fill="#032950" stroke="#032950" stroke-width="1.51"/><path d="M379,591L332,733L485,754Z" fill="#083664" stroke="#083664" stroke-width="1.51"/><path d="M238,1053L510,1092L511,1028Z" fill="#042f59" stroke="#042f59" stroke-width="1.51"/><path d="M260,929L238,1053L511,1028Z" fill="#042c52" stroke="#042c52" stroke-width="1.51"/><path d="M238,1053L362,1215L510,1092Z" fill="#042c52" stroke="#042c52" stroke-width="1.51"/><path d="M365,35L428,148L450,-2Z" fill="#022141" stroke="#022141" stroke-width="1.51"/><path d="M246,267L243,460L483,367Z" fill="#032e58" stroke="#032e58" stroke-width="1.51"/><path d="M207,343L243,460L246,267Z" fill="#032d55" stroke="#032d55" stroke-width="1.51"/><path d="M268,-134L365,35L450,-2Z" fill="#031d38" stroke="#031d38" stroke-width="1.51"/><path d="M365,35L240,96L428,148Z" fill="#02203f" stroke="#02203f" stroke-width="1.51"/><path d="M240,96L246,267L428,148Z" fill="#022242" stroke="#022242" stroke-width="1.51"/><path d="M238,1053L205,1232L362,1215Z" fill="#05294b" stroke="#05294b" stroke-width="1.51"/><path d="M268,-134L216,76L365,35Z" fill="#021c38" stroke="#021c38" stroke-width="1.51"/><path d="M209,620L332,733L379,591Z" fill="#083664" stroke="#083664" stroke-width="1.51"/><path d="M243,460L209,620L379,591Z" fill="#063563" stroke="#063563" stroke-width="1.51"/><path d="M216,76L240,96L365,35Z" fill="#021e3c" stroke="#021e3c" stroke-width="1.51"/><path d="M87,803L260,929L332,733Z" fill="#082e53" stroke="#082e53" stroke-width="1.51"/><path d="M209,620L87,803L332,733Z" fill="#08335c" stroke="#08335c" stroke-width="1.51"/><path d="M-159,-169L1,-127L122,-153Z" fill="#011021" stroke="#011021" stroke-width="1.51"/><path d="M122,-153L82,38L216,76Z" fill="#021a33" stroke="#021a33" stroke-width="1.51"/><path d="M108,1128L205,1232L238,1053Z" fill="#05284b" stroke="#05284b" stroke-width="1.51"/><path d="M216,76L44,260L240,96Z" fill="#021f3c" stroke="#021f3c" stroke-width="1.51"/><path d="M86,467L209,620L243,460Z" fill="#05325d" stroke="#05325d" stroke-width="1.51"/><path d="M240,96L44,260L246,267Z" fill="#022243" stroke="#022243" stroke-width="1.51"/><path d="M56,998L238,1053L260,929Z" fill="#05294d" stroke="#05294d" stroke-width="1.51"/><path d="M122,-153L216,76L268,-134Z" fill="#031931" stroke="#031931" stroke-width="1.51"/><path d="M47,-82L82,38L122,-153Z" fill="#03162c" stroke="#03162c" stroke-width="1.51"/><path d="M87,803L56,998L260,929Z" fill="#052747" stroke="#052747" stroke-width="1.51"/><path d="M82,38L44,260L216,76Z" fill="#031d38" stroke="#031d38" stroke-width="1.51"/><path d="M207,343L86,467L243,460Z" fill="#042e58" stroke="#042e58" stroke-width="1.51"/><path d="M44,260L207,343L246,267Z" fill="#03284c" stroke="#03284c" stroke-width="1.51"/><path d="M56,998L108,1128L238,1053Z" fill="#04294e" stroke="#04294e" stroke-width="1.51"/><path d="M8,899L56,998L87,803Z" fill="#072543" stroke="#072543" stroke-width="1.51"/><path d="M-75,583L87,803L209,620Z" fill="#093159" stroke="#093159" stroke-width="1.51"/><path d="M86,467L-75,583L209,620Z" fill="#07305a" stroke="#07305a" stroke-width="1.51"/><path d="M44,260L86,467L207,343Z" fill="#042a50" stroke="#042a50" stroke-width="1.51"/><path d="M108,1128L7,1335L205,1232Z" fill="#072543" stroke="#072543" stroke-width="1.51"/><path d="M-28,186L44,260L82,38Z" fill="#031c36" stroke="#031c36" stroke-width="1.51"/><path d="M44,260L-70,441L86,467Z" fill="#06284d" stroke="#06284d" stroke-width="1.51"/><path d="M-75,583L-21,828L87,803Z" fill="#0a2d4f" stroke="#0a2d4f" stroke-width="1.51"/><path d="M56,998L37,1073L108,1128Z" fill="#05274a" stroke="#05274a" stroke-width="1.51"/><path d="M37,1073L7,1335L108,1128Z" fill="#062341" stroke="#062341" stroke-width="1.51"/><path d="M1,-127L47,-82L122,-153Z" fill="#021326" stroke="#021326" stroke-width="1.51"/><path d="M-182,1219L7,1335L37,1073Z" fill="#06203a" stroke="#06203a" stroke-width="1.51"/><path d="M-70,441L-75,583L86,467Z" fill="#072b51" stroke="#072b51" stroke-width="1.51"/><path d="M-21,828L8,899L87,803Z" fill="#082747" stroke="#082747" stroke-width="1.51"/><path d="M-173,1111L-182,1219L37,1073Z" fill="#08223d" stroke="#08223d" stroke-width="1.51"/><path d="M47,-82L-192,-18L82,38Z" fill="#03152a" stroke="#03152a" stroke-width="1.51"/><path d="M-192,-18L-28,186L82,38Z" fill="#03172e" stroke="#03172e" stroke-width="1.51"/><path d="M-157,332L-70,441L44,260Z" fill="#062546" stroke="#062546" stroke-width="1.51"/><path d="M1,-127L-192,-18L47,-82Z" fill="#021124" stroke="#021124" stroke-width="1.51"/><path d="M8,899L37,1073L56,998Z" fill="#062544" stroke="#062544" stroke-width="1.51"/><path d="M-75,583L-203,759L-21,828Z" fill="#0c2b4c" stroke="#0c2b4c" stroke-width="1.51"/><path d="M8,899L-173,1111L37,1073Z" fill="#062342" stroke="#062342" stroke-width="1.51"/><path d="M-28,186L-157,332L44,260Z" fill="#041f3d" stroke="#041f3d" stroke-width="1.51"/><path d="M-199,894L-173,1111L8,899Z" fill="#08213d" stroke="#08213d" stroke-width="1.51"/><path d="M-159,-169L-192,-18L1,-127Z" fill="#020f21" stroke="#020f21" stroke-width="1.51"/><path d="M-21,828L-199,894L8,899Z" fill="#08233f" stroke="#08233f" stroke-width="1.51"/><path d="M-217,648L-203,759L-75,583Z" fill="#0d2c50" stroke="#0d2c50" stroke-width="1.51"/><path d="M-192,-18L-250,188L-28,186Z" fill="#05182d" stroke="#05182d" stroke-width="1.51"/><path d="M-203,759L-199,894L-21,828Z" fill="#0b2643" stroke="#0b2643" stroke-width="1.51"/><path d="M-250,188L-157,332L-28,186Z" fill="#061e38" stroke="#061e38" stroke-width="1.51"/><path d="M-260,459L-217,648L-75,583Z" fill="#0d2c4f" stroke="#0d2c4f" stroke-width="1.51"/><path d="M-260,459L-75,583L-70,441Z" fill="#0a2a4d" stroke="#0a2a4d" stroke-width="1.51"/><path d="M-157,332L-260,459L-70,441Z" fill="#0a2648" stroke="#0a2648" stroke-width="1.51"/><path d="M-250,188L-192,-18L-159,-169Z" fill="#051528" stroke="#051528" stroke-width="1.51"/><path d="M-250,188L-260,459L-157,332Z" fill="#0a2341" stroke="#0a2341" stroke-width="1.51"/><path d="M-199,894L-182,1219L-173,1111Z" fill="#092340" stroke="#092340" stroke-width="1.51"/><path d="M-199,894L-260,459L-182,1219Z" fill="#0c243e" stroke="#0c243e" stroke-width="1.51"/><path d="M-203,759L-217,648L-199,894Z" fill="#0f2a48" stroke="#0f2a48" stroke-width="1.51"/><path d="M-217,648L-260,459L-199,894Z" fill="#0f2c4e" stroke="#0f2c4e" stroke-width="1.51"/></svg>